PathFileType	4	(x/y/z)	S09_P20_T26
DataRate	CameraRate	NumFrames	NumMarkers	Units	OrigDataRate	OrigDataStartFrame	OrigNumFrames
240	240	7	51	mm	240	296	394
Frame#	Time	Sternum			R.Acromium			L.Acromium			Top.Head			R.ASIS			L.ASIS			R.PSIS			L.PSIS			R.Great.Tro			L.Great.Tro			R.Iliac.Crest			L.Iliac.Crest			V.Sacral			R.Thigh.Upper.Post			R.Thigh.Lower.Ant			R.Thigh.Lower.Post			R.Thigh.Upper.Ant			R.Knee.Lat			R.Knee.Med			R.Shank.Upper.Post			R.Shank.Lower.Ant			R.Shank.Lower.Post			R.Shank.Upper.Ant			R.Ankle.Lat			R.Ankle.Med			R.Heel.Upper			R.Heel.Med			R.Heel.Lat			R.Toe.Lat			R.Toe.Med			R.Toe.Tip			L.Thigh.Upper.Post			L.Thigh.Lower.Ant			L.Thigh.Lower.Post			L.Thigh.Upper.Ant			L.Knee.Lat			L.Knee.Med			L.Shank.Upper.Post			L.Shank.Lower.Ant			L.Shank.Lower.Post			L.Shank.Upper.Ant			L.Ankle.Lat			L.Ankle.Med			L.Heel.Upper			L.Heel.Med			L.Heel.Lat			L.Toe.Lat			L.Toe.Med			L.Toe.Tip			Cervical.Spine			Back			
		X1	Y1	Z1	X2	Y2	Z2	X3	Y3	Z3	X4	Y4	Z4	X5	Y5	Z5	X6	Y6	Z6	X7	Y7	Z7	X8	Y8	Z8	X9	Y9	Z9	X10	Y10	Z10	X11	Y11	Z11	X12	Y12	Z12	X13	Y13	Z13	X14	Y14	Z14	X15	Y15	Z15	X16	Y16	Z16	X17	Y17	Z17	X18	Y18	Z18	X19	Y19	Z19	X20	Y20	Z20	X21	Y21	Z21	X22	Y22	Z22	X23	Y23	Z23	X24	Y24	Z24	X25	Y25	Z25	X26	Y26	Z26	X27	Y27	Z27	X28	Y28	Z28	X29	Y29	Z29	X30	Y30	Z30	X31	Y31	Z31	X32	Y32	Z32	X33	Y33	Z33	X34	Y34	Z34	X35	Y35	Z35	X36	Y36	Z36	X37	Y37	Z37	X38	Y38	Z38	X39	Y39	Z39	X40	Y40	Z40	X41	Y41	Z41	X42	Y42	Z42	X43	Y43	Z43	X44	Y44	Z44	X45	Y45	Z45	X46	Y46	Z46	X47	Y47	Z47	X48	Y48	Z48	X49	Y49	Z49	X50	Y50	Z50	X51	Y51	Z51	

296	1.2292	319.55	1185.4	293.6	183.03	1437.1	432.66	199.89	1436.3	122.6	176.53	1742.8	272.49	237.7	1012	399.35	262.03	1027.2	155.38	27.576	1042.6	302.2	41.931	1051.8	213.5	147.79	922.75	459.81	198.19	941.18	78.792	150.43	1090.5	434.66	164.71	1122.3	111.35	17.005	1011.9	250.6	216.61	685.29	454	315.28	603.66	438.92	237.1	594.48	433.64	288.5	689.28	456.46	302.72	516.84	429.63	319.55	506.42	306.81	143.35	432.51	423.29	148.39	341.46	410.73	87.877	381.46	407.26	197.2	394.94	426.9	-28.686	242.14	375.87	11.913	224.77	295.17	-78.986	269.77	312.59	-90.405	239.06	282.53	-104.23	248.38	345.89	-12.889	127.86	417.72	38.101	94.795	323.39	76.402	76.746	372.93	155.4	676.53	126.6	246.14	588.84	137.99	178.23	589.79	150.43	226.23	671.8	110.03	237.96	508.14	151.61	249.07	527.81	283.12	189.3	374.94	143.84	251.45	285.26	161.98	188.38	298.4	153.2	251.47	362.76	153.71	205.04	100.95	183.97	222.12	99.985	276.59	136.89	68.718	239.34	150.93	46.727	272.93	138.03	38.711	212.81	310.16	42.465	155.58	348.59	50.855	263.78	397.76	67.614	202.73	105.49	1487.6	283.16	56.621	1222.2	264.91
297	1.2333	324.8	1185.8	293.82	188.52	1437.7	432.53	205.87	1437	122.51	182.18	1743.4	272.25	242.51	1013.1	399.21	267.13	1027.4	155.32	32.58	1043.7	301.65	47.008	1052.8	212.88	152.69	923.97	459.62	202.97	941.35	78.814	155.34	1091.6	434.23	170.17	1122.7	110.99	21.995	1012.9	250.09	224.41	686.99	454.14	323.88	606.42	438.5	245.73	596.34	433.9	296.28	691.79	456.13	312.07	519.28	429.37	328.45	508.89	306.49	153.43	432.85	423.33	159.64	341.87	410.81	98.603	381.07	407.46	207.77	395.99	426.86	-16.275	240.31	376.29	24.615	223.39	295.58	-67.361	266.47	312.92	-78.109	235.29	283.07	-92.038	244.73	346.4	2.1927	126.76	418.78	53.795	94.269	324.58	92.588	77.387	374.22	158.55	677.12	126.6	248.72	588.86	138.01	180.81	590.23	150.41	229.28	671.97	110.06	240	508.14	151.62	251.05	527.74	283.13	190.73	375.09	143.73	252.52	285.18	162.03	189.49	298.58	153.14	252.86	362.68	153.71	205.26	101.04	184.05	222.28	100.03	276.64	136.91	68.83	239.39	150.95	46.776	272.93	138.08	38.867	212.83	310.22	42.418	155.58	348.68	50.571	263.84	397.85	67.294	202.8	111.27	1488.4	282.9	62.004	1223.2	264.4
298	1.2375	330.03	1186.2	294.03	194.01	1438.4	432.4	211.84	1437.6	122.42	187.84	1744	272.02	247.33	1014.2	399.08	272.23	1027.6	155.26	37.585	1044.8	301.12	52.086	1053.7	212.29	157.65	925.21	459.47	207.73	941.51	78.846	160.23	1092.7	433.81	175.6	1123.2	110.61	26.984	1013.9	249.62	232.14	688.68	454.27	332.37	609.16	438.04	254.26	598.21	434.12	303.97	694.28	455.8	321.3	521.73	429.08	337.24	511.36	306.15	163.45	433.11	423.34	170.89	342.22	410.9	109.32	380.56	407.63	218.3	397	426.82	-3.7179	238.25	376.73	37.448	221.81	296	-55.573	262.92	313.28	-65.638	231.3	283.66	-79.667	240.83	346.95	17.435	125.48	419.82	69.631	93.607	325.75	108.9	77.916	375.46	161.72	677.69	126.61	251.3	588.86	138.03	183.39	590.67	150.39	232.33	672.13	110.09	242.04	508.14	151.63	253.03	527.67	283.14	192.17	375.24	143.61	253.58	285.1	162.08	190.6	298.75	153.08	254.24	362.61	153.71	205.5	101.13	184.12	222.44	100.07	276.69	136.94	68.951	239.44	150.99	46.83	272.93	138.12	39.031	212.84	310.28	42.368	155.57	348.77	50.289	263.89	397.95	66.968	202.86	117.05	1489.2	282.66	67.392	1224.1	263.89
299	1.2417	335.24	1186.6	294.23	199.5	1439.1	432.27	217.81	1438.2	122.35	193.49	1744.6	271.82	252.17	1015.3	398.95	277.32	1027.8	155.2	42.591	1045.8	300.63	57.168	1054.6	211.74	162.67	926.46	459.36	212.5	941.65	78.882	165.1	1093.9	433.42	181.02	1123.6	110.23	31.972	1014.9	249.19	239.78	690.37	454.38	340.75	611.88	437.56	262.7	600.07	434.31	311.58	696.74	455.46	330.41	524.17	428.76	345.9	513.81	305.79	173.42	433.27	423.32	182.15	342.49	411.01	120.04	379.93	407.78	228.79	397.97	426.78	8.9876	235.97	377.19	50.415	220.03	296.44	-43.619	259.13	313.69	-52.99	227.08	284.3	-67.109	236.69	347.56	32.836	124.04	420.87	85.608	92.821	326.89	125.34	78.34	376.66	164.88	678.24	126.63	253.87	588.85	138.04	185.97	591.11	150.37	235.37	672.27	110.11	244.08	508.13	151.64	255	527.6	283.16	193.61	375.38	143.49	254.65	285.02	162.12	191.71	298.92	153.03	255.62	362.53	153.71	205.74	101.23	184.2	222.61	100.12	276.74	136.98	69.083	239.49	151.02	46.889	272.93	138.17	39.203	212.86	310.34	42.317	155.56	348.87	50.009	263.94	398.06	66.634	202.9	122.82	1489.9	282.42	72.788	1225	263.39
300	1.2458	340.45	1187.1	294.41	204.99	1439.7	432.14	223.77	1438.9	122.27	199.15	1745.2	271.64	257.02	1016.4	398.81	282.39	1027.9	155.13	47.597	1046.8	300.18	62.252	1055.5	211.24	167.75	927.72	459.29	217.26	941.78	78.918	169.96	1095	433.06	186.42	1123.9	109.85	36.958	1015.8	248.81	247.34	692.03	454.48	349.03	614.55	437.05	271.03	601.91	434.46	319.09	699.15	455.13	339.39	526.59	428.41	354.43	516.24	305.42	183.34	433.35	423.26	193.41	342.7	411.12	130.75	379.18	407.89	239.23	398.9	426.73	21.843	233.47	377.68	63.519	218.07	296.91	-31.493	255.12	314.14	-40.159	222.65	284.98	-54.36	232.33	348.2	48.393	122.44	421.91	101.72	91.919	328.01	141.9	78.664	377.81	168.06	678.77	126.64	256.44	588.82	138.06	188.55	591.54	150.35	238.41	672.4	110.14	246.11	508.12	151.65	256.96	527.53	283.18	195.06	375.52	143.39	255.72	284.95	162.17	192.85	299.09	152.98	257	362.46	153.71	205.99	101.33	184.28	222.79	100.17	276.79	137.03	69.225	239.54	151.07	46.951	272.93	138.22	39.381	212.89	310.4	42.266	155.55	348.97	49.731	263.98	398.17	66.295	202.94	128.57	1490.6	282.19	78.19	1225.8	262.9
301	1.25	345.64	1187.5	294.57	210.48	1440.3	432.01	229.73	1439.5	122.21	204.82	1745.8	271.48	261.88	1017.5	398.67	287.47	1028.1	155.05	52.602	1047.8	299.77	67.34	1056.3	210.78	172.89	928.98	459.27	222.02	941.88	78.95	174.83	1096.1	432.72	191.81	1124.3	109.47	41.942	1016.7	248.47	254.81	693.67	454.56	357.18	617.17	436.51	279.25	603.73	434.57	326.5	701.51	454.81	348.24	528.99	428.03	362.83	518.64	305.04	193.2	433.33	423.18	204.67	342.83	411.25	141.47	378.3	407.99	249.63	399.78	426.68	34.849	230.76	378.2	76.763	215.93	297.4	-19.191	250.88	314.63	-27.14	218.01	285.71	-41.418	227.75	348.89	64.104	120.69	422.94	117.98	90.913	329.11	158.57	78.897	378.93	171.23	679.28	126.66	259.01	588.79	138.07	191.13	591.96	150.32	241.45	672.5	110.17	248.14	508.1	151.66	258.93	527.45	283.22	196.51	375.66	143.3	256.79	284.87	162.22	193.99	299.25	152.95	258.37	362.39	153.71	206.24	101.44	184.36	222.97	100.23	276.84	137.09	69.376	239.59	151.12	47.017	272.94	138.28	39.567	212.91	310.46	42.216	155.54	349.08	49.453	264.02	398.28	65.951	202.98	134.32	1491.4	281.96	83.6	1226.7	262.42
302	1.2542	350.83	1187.9	294.72	215.98	1440.9	431.88	235.68	1440.1	122.15	210.49	1746.3	271.34	266.76	1018.6	398.54	292.53	1028.2	154.95	57.607	1048.7	299.4	72.43	1057.1	210.38	178.09	930.23	459.28	226.78	941.97	78.976	179.7	1097.1	432.41	197.18	1124.6	109.09	46.923	1017.5	248.18	262.19	695.27	454.63	365.21	619.73	435.96	287.35	605.53	434.64	333.81	703.81	454.49	356.95	531.36	427.63	371.09	521	304.65	203.01	433.21	423.06	215.93	342.89	411.39	152.18	377.3	408.07	259.97	400.61	426.62	48.008	227.86	378.74	90.151	213.63	297.91	-6.7073	246.43	315.15	-13.929	213.19	286.48	-28.279	222.97	349.62	79.965	118.82	423.99	134.37	89.813	330.2	175.34	79.046	380.01	174.41	679.76	126.68	261.59	588.74	138.09	193.7	592.38	150.29	244.49	672.58	110.2	250.18	508.07	151.67	260.89	527.37	283.27	197.97	375.79	143.24	257.87	284.8	162.28	195.14	299.42	152.94	259.75	362.32	153.72	206.51	101.56	184.44	223.16	100.28	276.89	137.17	69.537	239.65	151.19	47.085	272.96	138.34	39.759	212.94	310.52	42.167	155.53	349.19	49.176	264.05	398.4	65.603	203.01	140.05	1492	281.75	89.018	1227.5	261.95
